<svg preserveAspectRatio="none" width="100%" height="100%" overflow="visible" style="display: block;" viewBox="0 0 112.889 60.9879" fill="none" xmlns="http://www.w3.org/2000/svg" xmlns:xlink="http://www.w3.org/1999/xlink">
<g id="Vector">
<path d="M103.1 2.28068C101.454 2.28068 99.6607 2.77812 97.7499 3.77299C95.9713 4.70935 94.3986 5.92369 93.1051 7.38674C91.5324 9.14241 90.7387 11.1468 90.7387 13.3414C90.7387 14.7166 91.062 15.9164 91.6794 16.9112C92.0174 17.4379 92.4437 18.1256 92.9728 18.9449L93.1051 19.1204C93.8401 20.0861 94.3545 21.0956 94.6485 22.1343C94.9572 23.2755 95.1188 24.5191 95.1188 25.8359C95.1188 29.7715 94.1634 32.9756 92.2085 35.6383C90.4888 37.9646 88.4604 39.0911 85.844 39.1497C85.844 38.9887 85.8294 38.7985 85.8294 38.5645C85.8294 37.3062 85.8734 36.2089 85.9616 35.3165C86.0498 34.3947 86.1821 33.4584 86.3732 32.4343C86.579 31.1907 86.7554 29.7715 86.9317 28.1914C87.1081 26.5674 87.1963 24.446 87.1963 21.871C87.1963 20.1738 87.1228 18.6376 86.9905 17.2916C86.8582 15.9749 86.6378 14.7167 86.3585 13.5608C85.991 11.4687 85.3884 10.0349 84.4918 9.05462C83.7422 8.26457 82.4193 7.31358 80.288 7.31358C79.0974 7.31358 77.7304 7.57693 76.1283 8.14753C74.4821 8.71812 72.9828 9.62521 71.6746 10.8103C70.0431 12.3026 69.1906 14.3363 69.1906 16.6918C69.1906 17.7013 69.3964 18.6376 69.7785 19.4423C70.0284 19.9544 70.3077 20.4665 70.6898 21.037C71.3219 21.9441 71.8216 22.9098 72.1891 23.89C72.5125 24.7971 72.6888 26.0114 72.6888 27.4891C72.6888 30.4591 72.1303 32.8 71.0132 34.4533C69.8667 36.1504 68.5585 37.3648 67.1181 38.0378C65.7658 38.6815 64.7663 38.9595 64.0755 39.0619C64.0755 38.067 64.0902 37.0575 64.1196 36.0334C64.149 34.8483 64.1637 33.634 64.1637 32.405C64.1637 29.0546 64.0167 25.6896 63.708 22.4123C63.3993 19.0619 62.8849 15.9749 62.1647 13.2243C61.3856 10.2251 60.2392 7.75251 58.7546 5.8798C56.9467 3.59743 54.4773 2.3831 51.6111 2.3831C48.9507 2.3831 46.496 3.53891 44.5117 5.71886C43.13 7.22581 42.2628 9.25945 41.866 11.732C41.2927 10.6932 40.6607 9.69837 39.9404 8.80591C36.2805 4.22654 31.1066 1.91492 24.5951 1.91492C19.9798 1.91492 15.9377 2.92442 12.557 4.91417C9.36743 6.80152 7.04506 8.52792 5.5899 10.0788C4.78148 10.8542 4.01715 11.8783 3.26753 13.2243C2.37091 14.7752 1.94466 16.6918 1.94466 19.0912C1.94466 20.3933 2.12104 21.7247 2.4885 23.0561C2.95886 24.7971 3.84077 25.7481 4.73738 26.2748C4.44341 27.2258 4.16414 28.206 3.92896 29.1863C3.26753 31.9661 2.92946 34.8629 2.92946 37.8183C2.92946 44.3874 4.5463 49.5374 7.73589 53.0926C11.0137 56.7502 15.3791 58.5937 20.7294 58.5937C25.6975 58.5937 30.1071 57.0721 33.8405 54.0875C37.427 51.2199 40.2638 47.3281 42.2775 42.5001C44.2324 37.789 45.2319 32.4928 45.2319 26.7576C45.2319 24.6508 45.0849 22.6903 44.8057 20.8176C45.276 20.9932 45.7023 21.0663 46.0109 21.0956C46.7018 21.2126 46.9517 21.3443 46.9517 21.3443C47.0545 21.4174 47.3191 21.6808 47.6572 22.3392C48.0981 23.217 48.7743 24.9434 49.421 28.2792C49.9796 31.1468 50.4793 34.2631 50.8909 37.5549C51.3024 40.8322 51.567 43.8314 51.6993 46.4649C51.9345 50.8541 52.9193 53.8826 54.7125 55.77C56.5351 57.672 58.8869 58.6815 61.5179 58.6815C65.075 58.6815 68.485 57.2038 71.6893 54.2777C72.6888 53.3706 73.6442 52.3611 74.5555 51.2784C74.8054 51.9953 75.1141 52.6829 75.4522 53.3267C76.7309 55.77 79.4796 58.6668 85.3296 58.6668C89.5481 58.6668 93.355 57.1014 96.6328 53.9997C99.6313 51.1906 102.174 47.4891 104.217 43.0268C106.172 38.7254 107.701 34.0875 108.744 29.2009C109.788 24.3289 110.317 19.574 110.317 15.0678C110.317 12.2733 110.023 9.713 109.435 7.47452C108.568 4.12413 106.26 2.20752 103.1 2.20752V2.28068ZM19.3918 21.5345C19.9504 21.3004 20.553 21.0809 21.1704 20.9054C21.9935 20.6713 22.9489 20.5396 24.0219 20.5396C26.3002 20.5396 28.2551 21.2272 29.9748 22.6171C31.4888 23.8461 32.2678 26.1724 32.2678 29.5228C32.2678 32.8732 31.4153 35.5798 29.6808 37.5549C28.0052 39.4423 26.1238 40.3201 23.7426 40.3201C21.773 40.3201 20.2297 39.6471 18.848 38.1987C17.4663 36.7503 16.7608 34.3948 16.7608 31.2053C16.7608 29.157 17.0548 27.2697 17.6574 25.6164C18.1866 24.1241 18.7745 22.7635 19.4065 21.5345H19.3918Z" fill="var(--fill-0, #DFBBFF)"/>
<use xlink:href="#stroke0_0_6" transform="translate(100.294 1.55089) scale(0.0123978) rotate(-31.1339)"/>
<use xlink:href="#stroke0_0_6" transform="translate(103.422 1.74365) scale(0.00977794) rotate(113.653)"/>
<use xlink:href="#stroke0_0_6" transform="translate(99.3394 1.58861) scale(0.006304) rotate(17.5619)"/>
<use xlink:href="#stroke0_0_6" transform="translate(99.1501 1.19966) scale(0.00824223) rotate(55.5696)"/>
<use xlink:href="#stroke0_0_6" transform="translate(99.2064 3.13472) scale(0.00705962) rotate(108.914)"/>
<use xlink:href="#stroke0_0_6" transform="translate(96.3159 5.5556) scale(0.0057127) rotate(-116.89)"/>
<use xlink:href="#stroke0_0_6" transform="translate(97.9792 3.09016) scale(0.0145572) rotate(93.4733)"/>
<use xlink:href="#stroke0_0_6" transform="translate(94.3841 7.65551) scale(0.00561427) rotate(-148.089)"/>
<use xlink:href="#stroke0_0_6" transform="translate(95.2275 8.43137) scale(0.0102437) rotate(163.224)"/>
<use xlink:href="#stroke0_0_6" transform="translate(94.1639 6.99906) scale(0.0114786) rotate(91.6905)"/>
<use xlink:href="#stroke0_0_6" transform="translate(92.2938 7.9234) scale(0.011886) rotate(66.6047)"/>
<use xlink:href="#stroke0_0_6" transform="translate(92.622 10.784) scale(0.00948542) rotate(93.4691)"/>
<use xlink:href="#stroke0_0_6" transform="translate(91.4286 12.1777) scale(0.00629848) rotate(68.0115)"/>
<use xlink:href="#stroke0_0_6" transform="translate(92.1242 13.8076) scale(0.00614232) rotate(103.196)"/>
<use xlink:href="#stroke0_0_6" transform="translate(93.3342 15.4103) scale(0.00986103) rotate(122.56)"/>
<use xlink:href="#stroke0_0_6" transform="translate(90.9597 15.1334) scale(0.0102752) rotate(20.0818)"/>
<use xlink:href="#stroke0_0_6" transform="translate(92.5411 16.8076) scale(0.00783975) rotate(39.4069)"/>
<use xlink:href="#stroke0_0_6" transform="translate(92.6278 17.0866) scale(0.013786) rotate(24.9395)"/>
<use xlink:href="#stroke0_0_6" transform="translate(92.8474 22.902) scale(0.00858154) rotate(-79.5105)"/>
<use xlink:href="#stroke0_0_6" transform="translate(95.2433 21.6878) scale(0.00609088) rotate(67.785)"/>
<use xlink:href="#stroke0_0_6" transform="translate(96.9477 26.304) scale(0.011447) rotate(179.506)"/>
<use xlink:href="#stroke0_0_6" transform="translate(94.9739 24.4389) scale(0.00609234) rotate(43.595)"/>
<use xlink:href="#stroke0_0_6" transform="translate(94.7245 24.2679) scale(0.0139916) rotate(39.7074)"/>
<use xlink:href="#stroke0_0_6" transform="translate(92.7713 31.6158) scale(0.0122575) rotate(-86.8159)"/>
<use xlink:href="#stroke0_0_6" transform="translate(93.1146 34.8185) scale(0.0137643) rotate(-116.797)"/>
<use xlink:href="#stroke0_0_6" transform="translate(94.9651 36.0059) scale(0.0119183) rotate(-171.341)"/>
<use xlink:href="#stroke0_0_6" transform="translate(92.867 36.4439) scale(0.0062676) rotate(-148.709)"/>
<use xlink:href="#stroke0_0_6" transform="translate(93.746 34.2718) scale(0.0123555) rotate(86.8994)"/>
<use xlink:href="#stroke0_0_6" transform="translate(92.6557 37.235) scale(0.00965309) rotate(123.093)"/>
<use xlink:href="#stroke0_0_6" transform="translate(87.2631 40.9727) scale(0.0124326) rotate(-104.211)"/>
<use xlink:href="#stroke0_0_6" transform="translate(85.5918 38.8264) scale(0.00705879) rotate(-41.5175)"/>
<use xlink:href="#stroke0_0_6" transform="translate(86.4329 37.9432) scale(0.00543278) rotate(53.8493)"/>
<use xlink:href="#stroke0_0_6" transform="translate(83.6464 40.4664) scale(0.0146734) rotate(-95.4055)"/>
<use xlink:href="#stroke0_0_6" transform="translate(86.5763 37.3403) scale(0.00568911) rotate(-163.12)"/>
<use xlink:href="#stroke0_0_6" transform="translate(88.4543 34.1055) scale(0.0105357) rotate(117.454)"/>
<use xlink:href="#stroke0_0_6" transform="translate(87.551 32.3003) scale(0.00760123) rotate(100.438)"/>
<use xlink:href="#stroke0_0_6" transform="translate(86.1169 29.2764) scale(0.0109147) rotate(35.4559)"/>
<use xlink:href="#stroke0_0_6" transform="translate(88.6497 27.8424) scale(0.0118422) rotate(85.4294)"/>
<use xlink:href="#stroke0_0_6" transform="translate(88.4414 29.3129) scale(0.00756431) rotate(168.532)"/>
<use xlink:href="#stroke0_0_6" transform="translate(89.3709 26.2917) scale(0.00978118) rotate(119.374)"/>
<use xlink:href="#stroke0_0_6" transform="translate(88.1587 24.2777) scale(0.00667164) rotate(82.2312)"/>
<use xlink:href="#stroke0_0_6" transform="translate(84.1676 22.2024) scale(0.0146386) rotate(-19.1734)"/>
<use xlink:href="#stroke0_0_6" transform="translate(85.8897 22.925) scale(0.00646124) rotate(-84.7144)"/>
<use xlink:href="#stroke0_0_6" transform="translate(85.8335 20.4752) scale(0.00637209) rotate(-28.9819)"/>
<use xlink:href="#stroke0_0_6" transform="translate(85.5246 21.0785) scale(0.00886381) rotate(-89.5614)"/>
<use xlink:href="#stroke0_0_6" transform="translate(87.4962 19.8496) scale(0.00667864) rotate(-151.296)"/>
<use xlink:href="#stroke0_0_6" transform="translate(87.4095 19.241) scale(0.0099611) rotate(-149.06)"/>
<use xlink:href="#stroke0_0_6" transform="translate(88.1485 14.7118) scale(0.00640537) rotate(98.447)"/>
<use xlink:href="#stroke0_0_6" transform="translate(84.9855 15.3323) scale(0.00732375) rotate(-74.5299)"/>
<use xlink:href="#stroke0_0_6" transform="translate(83.6335 13.3777) scale(0.010728) rotate(-53.269)"/>
<use xlink:href="#stroke0_0_6" transform="translate(84.2369 10.721) scale(0.00740803) rotate(-14.8938)"/>
<use xlink:href="#stroke0_0_6" transform="translate(87.0429 9.12065) scale(0.00844659) rotate(97.7482)"/>
<use xlink:href="#stroke0_0_6" transform="translate(83.0268 7.54217) scale(0.00937893) rotate(-3.27342)"/>
<use xlink:href="#stroke0_0_6" transform="translate(82.0288 9.31251) scale(0.00753169) rotate(-82.537)"/>
<use xlink:href="#stroke0_0_6" transform="translate(80.4925 6.08999) scale(0.00980115) rotate(-1.72977)"/>
<use xlink:href="#stroke0_0_6" transform="translate(79.042 7.14152) scale(0.00743388) rotate(-35.9746)"/>
<use xlink:href="#stroke0_0_6" transform="translate(77.4482 7.01997) scale(0.00863635) rotate(-34.7137)"/>
<use xlink:href="#stroke0_0_6" transform="translate(79.0776 8.49699) scale(0.0057583) rotate(-175.055)"/>
<use xlink:href="#stroke0_0_6" transform="translate(74.7394 8.39304) scale(0.00985006) rotate(-60.042)"/>
<use xlink:href="#stroke0_0_6" transform="translate(73.0682 8.67969) scale(0.0101913) rotate(-49.987)"/>
<use xlink:href="#stroke0_0_6" transform="translate(73.7692 7.7951) scale(0.00608129) rotate(24.2005)"/>
<use xlink:href="#stroke0_0_6" transform="translate(75.7195 10.4763) scale(0.0123278) rotate(146.97)"/>
<use xlink:href="#stroke0_0_6" transform="translate(70.107 11.6964) scale(0.00730686) rotate(-79.0575)"/>
<use xlink:href="#stroke0_0_6" transform="translate(71.0047 8.95762) scale(0.0144934) rotate(51.4585)"/>
<use xlink:href="#stroke0_0_6" transform="translate(68.0357 13.9913) scale(0.00696996) rotate(-51.3072)"/>
<use xlink:href="#stroke0_0_6" transform="translate(69.5624 17.9412) scale(0.0113174) rotate(-141.601)"/>
<use xlink:href="#stroke0_0_6" transform="translate(70.6393 17.0173) scale(0.00692515) rotate(141.062)"/>
<use xlink:href="#stroke0_0_6" transform="translate(68.7087 18.9586) scale(0.00565501) rotate(-103.232)"/>
<use xlink:href="#stroke0_0_6" transform="translate(69.2301 17.284) scale(0.00710988) rotate(37.0435)"/>
<use xlink:href="#stroke0_0_6" transform="translate(68.4444 19.2989) scale(0.00734656) rotate(-21.206)"/>
<use xlink:href="#stroke0_0_6" transform="translate(71.2581 18.7445) scale(0.0111723) rotate(53.7495)"/>
<use xlink:href="#stroke0_0_6" transform="translate(71.3164 24.6184) scale(0.00808001) rotate(-128.676)"/>
<use xlink:href="#stroke0_0_6" transform="translate(71.5901 22.5336) scale(0.00571102) rotate(13.0106)"/>
<use xlink:href="#stroke0_0_6" transform="translate(74.2948 25.9373) scale(0.00907978) rotate(162.754)"/>
<use xlink:href="#stroke0_0_6" transform="translate(71.8535 24.154) scale(0.0112119) rotate(22.3014)"/>
<use xlink:href="#stroke0_0_6" transform="translate(71.7023 26.6864) scale(0.00784366) rotate(8.99244)"/>
<use xlink:href="#stroke0_0_6" transform="translate(73.3912 30.7691) scale(0.00681087) rotate(-166.195)"/>
<use xlink:href="#stroke0_0_6" transform="translate(72.0075 28.0624) scale(0.0126651) rotate(37.2938)"/>
<use xlink:href="#stroke0_0_6" transform="translate(73.063 33.1903) scale(0.00576078) rotate(166.761)"/>
<use xlink:href="#stroke0_0_6" transform="translate(73.5542 32.9416) scale(0.00872577) rotate(113.571)"/>
<use xlink:href="#stroke0_0_6" transform="translate(69.2872 33.7481) scale(0.00715708) rotate(-13.544)"/>
<use xlink:href="#stroke0_0_6" transform="translate(71.6184 35.5045) scale(0.0069167) rotate(132.266)"/>
<use xlink:href="#stroke0_0_6" transform="translate(70.7702 36.5999) scale(0.00549609) rotate(139.006)"/>
<use xlink:href="#stroke0_0_6" transform="translate(66.6905 35.4856) scale(0.0100874) rotate(-0.509485)"/>
<use xlink:href="#stroke0_0_6" transform="translate(65.7363 37.7757) scale(0.00641672) rotate(-40.0404)"/>
<use xlink:href="#stroke0_0_6" transform="translate(66.2777 39.8058) scale(0.00604443) rotate(-134.619)"/>
<use xlink:href="#stroke0_0_6" transform="translate(66.6835 37.0451) scale(0.0101262) rotate(89.6532)"/>
<use xlink:href="#stroke0_0_6" transform="translate(61.7255 40.3933) scale(0.014587) rotate(-90.4574)"/>
<use xlink:href="#stroke0_0_6" transform="translate(63.6733 38.4503) scale(0.0113792) rotate(-125.674)"/>
<use xlink:href="#stroke0_0_6" transform="translate(61.6334 33.876) scale(0.0100431) rotate(-41.6002)"/>
<use xlink:href="#stroke0_0_6" transform="translate(63.5028 34.4441) scale(0.00898306) rotate(-116.371)"/>
<use xlink:href="#stroke0_0_6" transform="translate(62.7647 31.1764) scale(0.0057767) rotate(-43.2869)"/>
<use xlink:href="#stroke0_0_6" transform="translate(64.4874 31.7996) scale(0.00718105) rotate(-147.206)"/>
<use xlink:href="#stroke0_0_6" transform="translate(65.6 30.3941) scale(0.00930429) rotate(-177.86)"/>
<use xlink:href="#stroke0_0_6" transform="translate(62.6757 29.3665) scale(0.0111638) rotate(-106.697)"/>
<use xlink:href="#stroke0_0_6" transform="translate(62.1232 24.6196) scale(0.008907) rotate(-23.6034)"/>
<use xlink:href="#stroke0_0_6" transform="translate(63.877 25.697) scale(0.00690292) rotate(-131.749)"/>
<use xlink:href="#stroke0_0_6" transform="translate(65.3617 22.9399) scale(0.00708308) rotate(134.245)"/>
<use xlink:href="#stroke0_0_6" transform="translate(65.7005 22.9639) scale(0.0105049) rotate(171.912)"/>
<use xlink:href="#stroke0_0_6" transform="translate(65.2769 16.94) scale(0.0134869) rotate(80.3461)"/>
<use xlink:href="#stroke0_0_6" transform="translate(64.7406 17.3006) scale(0.00695898) rotate(116.385)"/>
<use xlink:href="#stroke0_0_6" transform="translate(65.8331 17.3898) scale(0.0142807) rotate(157.356)"/>
<use xlink:href="#stroke0_0_6" transform="translate(63.0996 11.2207) scale(0.012061) rotate(60.2041)"/>
<use xlink:href="#stroke0_0_6" transform="translate(59.3656 13.7922) scale(0.0132762) rotate(-83.6191)"/>
<use xlink:href="#stroke0_0_6" transform="translate(59.9789 11.8922) scale(0.00967591) rotate(-100.657)"/>
<use xlink:href="#stroke0_0_6" transform="translate(60.0934 10.3671) scale(0.00684621) rotate(-118.115)"/>
<use xlink:href="#stroke0_0_6" transform="translate(58.6535 7.78444) scale(0.00564034) rotate(-36.3466)"/>
<use xlink:href="#stroke0_0_6" transform="translate(58.4282 7.92502) scale(0.00689858) rotate(-83.5995)"/>
<use xlink:href="#stroke0_0_6" transform="translate(55.4417 4.3012) scale(0.0141933) rotate(-21.6618)"/>
<use xlink:href="#stroke0_0_6" transform="translate(55.8462 3.21869) scale(0.00764755) rotate(-12.3394)"/>
<use xlink:href="#stroke0_0_6" transform="translate(56.4634 1.87554) scale(0.00720653) rotate(50.9949)"/>
<use xlink:href="#stroke0_0_6" transform="translate(51.758 2.2232) scale(0.0129369) rotate(-32.116)"/>
<use xlink:href="#stroke0_0_6" transform="translate(55.0632 1.65912) scale(0.00977521) rotate(116.461)"/>
<use xlink:href="#stroke0_0_6" transform="translate(51.8925 0.874215) scale(0.00613069) rotate(58.056)"/>
<use xlink:href="#stroke0_0_6" transform="translate(50.4708 1.22629) scale(0.00585209) rotate(39.965)"/>
<use xlink:href="#stroke0_0_6" transform="translate(51.255 2.05158) scale(0.00835562) rotate(120.666)"/>
<use xlink:href="#stroke0_0_6" transform="translate(49.2808 2.06477) scale(0.00598068) rotate(91.6101)"/>
<use xlink:href="#stroke0_0_6" transform="translate(48.23 1.70553) scale(0.00903955) rotate(77.2914)"/>
<use xlink:href="#stroke0_0_6" transform="translate(45.3951 6.14102) scale(0.00767002) rotate(-113.171)"/>
<use xlink:href="#stroke0_0_6" transform="translate(43.7929 6.68253) scale(0.00810307) rotate(-96.6487)"/>
<use xlink:href="#stroke0_0_6" transform="translate(45.6134 6.13452) scale(0.00549958) rotate(134.288)"/>
<use xlink:href="#stroke0_0_6" transform="translate(45.0077 8.08233) scale(0.00731883) rotate(174.463)"/>
<use xlink:href="#stroke0_0_6" transform="translate(43.1236 6.49261) scale(0.00564494) rotate(50.8233)"/>
<use xlink:href="#stroke0_0_6" transform="translate(42.3515 7.18773) scale(0.0068616) rotate(36.148)"/>
<use xlink:href="#stroke0_0_6" transform="translate(41.8243 11.3254) scale(0.00657303) rotate(-117.098)"/>
<use xlink:href="#stroke0_0_6" transform="translate(43.2348 10.1836) scale(0.00556831) rotate(103.076)"/>
<use xlink:href="#stroke0_0_6" transform="translate(42.9195 13.5849) scale(0.0112239) rotate(-162.761)"/>
<use xlink:href="#stroke0_0_6" transform="translate(42.2706 10.5947) scale(0.00695417) rotate(152.451)"/>
<use xlink:href="#stroke0_0_6" transform="translate(42.0418 7.43901) scale(0.0102919) rotate(99.8572)"/>
<use xlink:href="#stroke0_0_6" transform="translate(35.3096 6.61051) scale(0.0146171) rotate(-34.9731)"/>
<use xlink:href="#stroke0_0_6" transform="translate(36.417 8.86514) scale(0.0132817) rotate(-127.642)"/>
<use xlink:href="#stroke0_0_6" transform="translate(36.5272 3.98631) scale(0.00590332) rotate(91.3934)"/>
<use xlink:href="#stroke0_0_6" transform="translate(35.6873 2.21464) scale(0.0103576) rotate(77.5827)"/>
<use xlink:href="#stroke0_0_6" transform="translate(34.7269 2.68488) scale(0.00797215) rotate(109.362)"/>
<use xlink:href="#stroke0_0_6" transform="translate(32.753 4.40085) scale(0.00723248) rotate(-167.099)"/>
<use xlink:href="#stroke0_0_6" transform="translate(31.4287 5.4032) scale(0.0126088) rotate(-159.842)"/>
<use xlink:href="#stroke0_0_6" transform="translate(27.1286 -0.269957) scale(0.0119492) rotate(20.9525)"/>
<use xlink:href="#stroke0_0_6" transform="translate(27.914 2.59012) scale(0.00571823) rotate(168.366)"/>
<use xlink:href="#stroke0_0_6" transform="translate(27.3017) scale(0.0118629) rotate(89.585)"/>
<use xlink:href="#stroke0_0_6" transform="translate(25.203 2.44782) scale(0.00658786) rotate(157.875)"/>
<use xlink:href="#stroke0_0_6" transform="translate(24.1433 1.65629) scale(0.00607752) rotate(128.531)"/>
<use xlink:href="#stroke0_0_6" transform="translate(22.6297 0.707394) scale(0.0077083) rotate(78.766)"/>
<use xlink:href="#stroke0_0_6" transform="translate(19.5423 3.60418) scale(0.00735546) rotate(-108.478)"/>
<use xlink:href="#stroke0_0_6" transform="translate(17.3862 4.12981) scale(0.00999738) rotate(-95.2648)"/>
<use xlink:href="#stroke0_0_6" transform="translate(17.9011 1.36117) scale(0.00570445) rotate(56.1511)"/>
<use xlink:href="#stroke0_0_6" transform="translate(18.9641 2.95616) scale(0.0117007) rotate(131.561)"/>
<use xlink:href="#stroke0_0_6" transform="translate(16.7664 6.04393) scale(0.0136112) rotate(174.135)"/>
<use xlink:href="#stroke0_0_6" transform="translate(13.4345 6.12022) scale(0.00569522) rotate(-156.142)"/>
<use xlink:href="#stroke0_0_6" transform="translate(12.8059 4.00231) scale(0.00603417) rotate(78.4072)"/>
<use xlink:href="#stroke0_0_6" transform="translate(10.7775 4.09458) scale(0.00669713) rotate(34.1098)"/>
<use xlink:href="#stroke0_0_6" transform="translate(11.6709 5.74656) scale(0.00680979) rotate(107.219)"/>
<use xlink:href="#stroke0_0_6" transform="translate(6.31162 9.2401) scale(0.0134222) rotate(-83.4963)"/>
<use xlink:href="#stroke0_0_6" transform="translate(9.53272 7.56429) scale(0.0106719) rotate(108.88)"/>
<use xlink:href="#stroke0_0_6" transform="translate(6.26286 11.9867) scale(0.00996156) rotate(-144.344)"/>
<use xlink:href="#stroke0_0_6" transform="translate(3.48893 13.4658) scale(0.011671) rotate(-109.167)"/>
<use xlink:href="#stroke0_0_6" transform="translate(2.16821 13.3341) scale(0.0081986) rotate(-73.2299)"/>
<use xlink:href="#stroke0_0_6" transform="translate(2.6169 11.6897) scale(0.00879224) rotate(28.5236)"/>
<use xlink:href="#stroke0_0_6" transform="translate(4.01382 15.063) scale(0.00618154) rotate(146.174)"/>
<use xlink:href="#stroke0_0_6" transform="translate(1.81172 14.4038) scale(0.00569407) rotate(27.7607)"/>
<use xlink:href="#stroke0_0_6" transform="translate(1.20483 15.3767) scale(0.0068098) rotate(11.919)"/>
<use xlink:href="#stroke0_0_6" transform="translate(0.330127 18.0402) scale(0.00747271) rotate(-49.7518)"/>
<use xlink:href="#stroke0_0_6" transform="translate(-0.830443 18.4312) scale(0.0135282) rotate(-22.9718)"/>
<use xlink:href="#stroke0_0_6" transform="translate(0.327858 22.8073) scale(0.00973094) rotate(-78.6448)"/>
<use xlink:href="#stroke0_0_6" transform="translate(1.23724 23.8996) scale(0.00724728) rotate(-80.9659)"/>
<use xlink:href="#stroke0_0_6" transform="translate(0.1785 23.6909) scale(0.0134429) rotate(-30.9503)"/>
<use xlink:href="#stroke0_0_6" transform="translate(6.37995 28.7394) scale(0.0132629) rotate(-171.908)"/>
<use xlink:href="#stroke0_0_6" transform="translate(5.90662 28.0766) scale(0.00736277) rotate(146)"/>
<use xlink:href="#stroke0_0_6" transform="translate(5.0673 30.4918) scale(0.00797605) rotate(-171.735)"/>
<use xlink:href="#stroke0_0_6" transform="translate(5.78482 31.6267) scale(0.0101862) rotate(163.294)"/>
<use xlink:href="#stroke0_0_6" transform="translate(1.5586 30.5083) scale(0.0110766) rotate(-4.11834)"/>
<use xlink:href="#stroke0_0_6" transform="translate(2.32675 34.3919) scale(0.00549103) rotate(-84.2792)"/>
<use xlink:href="#stroke0_0_6" transform="translate(4.23166 37.5542) scale(0.0119881) rotate(-161.113)"/>
<use xlink:href="#stroke0_0_6" transform="translate(4.80154 38.3075) scale(0.010429) rotate(170.014)"/>
<use xlink:href="#stroke0_0_6" transform="translate(4.5698 39.7089) scale(0.0091376) rotate(168.144)"/>
<use xlink:href="#stroke0_0_6" transform="translate(0.849022 39.7668) scale(0.00903463) rotate(-38.5238)"/>
<use xlink:href="#stroke0_0_6" transform="translate(1.14812 44.0152) scale(0.0127451) rotate(-92.829)"/>
<use xlink:href="#stroke0_0_6" transform="translate(0.871411 45.0476) scale(0.0121652) rotate(-69.8571)"/>
<use xlink:href="#stroke0_0_6" transform="translate(3.22407 44.1959) scale(0.00556679) rotate(11.3626)"/>
<use xlink:href="#stroke0_0_6" transform="translate(5.18655 44.2455) scale(0.0118065) rotate(68.6863)"/>
<use xlink:href="#stroke0_0_6" transform="translate(5.01795 49.287) scale(0.00544494) rotate(-150.161)"/>
<use xlink:href="#stroke0_0_6" transform="translate(5.22712 50.9678) scale(0.00804257) rotate(-138.655)"/>
<use xlink:href="#stroke0_0_6" transform="translate(4.30122 50.7474) scale(0.0067654) rotate(-68.0904)"/>
<use xlink:href="#stroke0_0_6" transform="translate(5.6323 53.2884) scale(0.00905259) rotate(-115.084)"/>
<use xlink:href="#stroke0_0_6" transform="translate(9.81452 50.7408) scale(0.0135355) rotate(92.4595)"/>
<use xlink:href="#stroke0_0_6" transform="translate(8.53645 56.5603) scale(0.0101324) rotate(-127.354)"/>
<use xlink:href="#stroke0_0_6" transform="translate(8.66166 54.5204) scale(0.00597087) rotate(-26.4099)"/>
<use xlink:href="#stroke0_0_6" transform="translate(11.5243 56.5596) scale(0.00545988) rotate(-174.919)"/>
<use xlink:href="#stroke0_0_6" transform="translate(12.6713 56.3788) scale(0.005544) rotate(141.249)"/>
<use xlink:href="#stroke0_0_6" transform="translate(12.673 57.7838) scale(0.00555806) rotate(-154.286)"/>
<use xlink:href="#stroke0_0_6" transform="translate(14.3054 56.5561) scale(0.00617849) rotate(106.899)"/>
<use xlink:href="#stroke0_0_6" transform="translate(15.7229 54.9524) scale(0.0129112) rotate(67.2787)"/>
<use xlink:href="#stroke0_0_6" transform="translate(18.0739 56.5697) scale(0.0101841) rotate(88.8568)"/>
<use xlink:href="#stroke0_0_6" transform="translate(18.5895 59.559) scale(0.00656903) rotate(-165.595)"/>
<use xlink:href="#stroke0_0_6" transform="translate(22.5683 58.1427) scale(0.0134218) rotate(126.785)"/>
<use xlink:href="#stroke0_0_6" transform="translate(19.8609 57.1303) scale(0.00884933) rotate(-0.223169)"/>
<use xlink:href="#stroke0_0_6" transform="translate(25.1083 58.2843) scale(0.00971069) rotate(133.222)"/>
<use xlink:href="#stroke0_0_6" transform="translate(21.5621 57.909) scale(0.0140755) rotate(-38.7855)"/>
<use xlink:href="#stroke0_0_6" transform="translate(28.2562 56.0023) scale(0.0101382) rotate(81.8875)"/>
<use xlink:href="#stroke0_0_6" transform="translate(26.5043 58.4817) scale(0.00925005) rotate(-77.8069)"/>
<use xlink:href="#stroke0_0_6" transform="translate(28.005 57.3641) scale(0.0072814) rotate(-65.1755)"/>
<use xlink:href="#stroke0_0_6" transform="translate(30.7417 54.8253) scale(0.00637725) rotate(47.9826)"/>
<use xlink:href="#stroke0_0_6" transform="translate(31.4498 53.2199) scale(0.00999155) rotate(36.3386)"/>
<use xlink:href="#stroke0_0_6" transform="translate(34.0851 56.1193) scale(0.00685268) rotate(-176.271)"/>
<use xlink:href="#stroke0_0_6" transform="translate(34.9757 52.3217) scale(0.00830949) rotate(77.8413)"/>
<use xlink:href="#stroke0_0_6" transform="translate(34.4509 54.8675) scale(0.00721423) rotate(-114.976)"/>
<use xlink:href="#stroke0_0_6" transform="translate(34.5161 53.3138) scale(0.00674985) rotate(-83.1868)"/>
<use xlink:href="#stroke0_0_6" transform="translate(35.9017 53.7703) scale(0.0114414) rotate(-115.934)"/>
<use xlink:href="#stroke0_0_6" transform="translate(39.5013 51.7841) scale(0.0106586) rotate(-173.864)"/>
<use xlink:href="#stroke0_0_6" transform="translate(42.3169 46.6491) scale(0.0145902) rotate(107.695)"/>
<use xlink:href="#stroke0_0_6" transform="translate(41.1288 47.5292) scale(0.00553092) rotate(172.469)"/>
<use xlink:href="#stroke0_0_6" transform="translate(42.1777 46.2755) scale(0.00620716) rotate(146.352)"/>
<use xlink:href="#stroke0_0_6" transform="translate(39.5091 44.7982) scale(0.00668128) rotate(-41.2559)"/>
<use xlink:href="#stroke0_0_6" transform="translate(42.5112 42.9767) scale(0.00598219) rotate(88.6311)"/>
<use xlink:href="#stroke0_0_6" transform="translate(42.4049 41.0523) scale(0.00808089) rotate(57.8479)"/>
<use xlink:href="#stroke0_0_6" transform="translate(43.6248 43.1605) scale(0.00805603) rotate(-172.829)"/>
<use xlink:href="#stroke0_0_6" transform="translate(44.5458 40.9849) scale(0.00676783) rotate(150.493)"/>
<use xlink:href="#stroke0_0_6" transform="translate(40.7756 38.3535) scale(0.0123499) rotate(-31.8103)"/>
<use xlink:href="#stroke0_0_6" transform="translate(44.881 36.6635) scale(0.00600729) rotate(97.0188)"/>
<use xlink:href="#stroke0_0_6" transform="translate(44.9258 33.1786) scale(0.0125908) rotate(53.929)"/>
<use xlink:href="#stroke0_0_6" transform="translate(45.4034 35.5872) scale(0.00561506) rotate(-174.416)"/>
<use xlink:href="#stroke0_0_6" transform="translate(42.4154 34.136) scale(0.0107216) rotate(-67.3456)"/>
<use xlink:href="#stroke0_0_6" transform="translate(46.2389 30.9182) scale(0.00621082) rotate(95.131)"/>
<use xlink:href="#stroke0_0_6" transform="translate(43.4405 29.6958) scale(0.00798214) rotate(-15.3184)"/>
<use xlink:href="#stroke0_0_6" transform="translate(42.6123 29.4165) scale(0.0113131) rotate(-53.8657)"/>
<use xlink:href="#stroke0_0_6" transform="translate(45.1562 26.3674) scale(0.00545468) rotate(43.2713)"/>
<use xlink:href="#stroke0_0_6" transform="translate(42.9471 27.7541) scale(0.0115466) rotate(-80.1268)"/>
<use xlink:href="#stroke0_0_6" transform="translate(47.0878 24.7838) scale(0.0080651) rotate(140.07)"/>
<use xlink:href="#stroke0_0_6" transform="translate(42.4247 23.6901) scale(0.0111317) rotate(-60.7997)"/>
<use xlink:href="#stroke0_0_6" transform="translate(43.7258 22.5175) scale(0.00736824) rotate(-84.1441)"/>
<use xlink:href="#stroke0_0_6" transform="translate(46.9433 24.2937) scale(0.0145161) rotate(-152.933)"/>
<use xlink:href="#stroke0_0_6" transform="translate(45.7657 22.317) scale(0.00674971) rotate(-58.7552)"/>
<use xlink:href="#stroke0_0_6" transform="translate(51.4971 23.1599) scale(0.0141351) rotate(129.345)"/>
<use xlink:href="#stroke0_0_6" transform="translate(47.2773 25.4943) scale(0.00618353) rotate(-62.4987)"/>
<use xlink:href="#stroke0_0_6" transform="translate(50.4196 28.904) scale(0.0118297) rotate(-167.1)"/>
<use xlink:href="#stroke0_0_6" transform="translate(48.8842 26.5443) scale(0.00663477) rotate(32.5478)"/>
<use xlink:href="#stroke0_0_6" transform="translate(47.664 28.6847) scale(0.00840784) rotate(-28.3232)"/>
<use xlink:href="#stroke0_0_6" transform="translate(49.5815 31.6605) scale(0.00566018) rotate(-119.591)"/>
<use xlink:href="#stroke0_0_6" transform="translate(49.4441 33.2686) scale(0.00811699) rotate(-113.151)"/>
<use xlink:href="#stroke0_0_6" transform="translate(52.8075 32.9696) scale(0.0105498) rotate(132.083)"/>
<use xlink:href="#stroke0_0_6" transform="translate(51.8133 33.4654) scale(0.00677034) rotate(94.1994)"/>
<use xlink:href="#stroke0_0_6" transform="translate(49.9719 33.1617) scale(0.0132912) rotate(27.3337)"/>
<use xlink:href="#stroke0_0_6" transform="translate(50.9098 39.0678) scale(0.00581127) rotate(-129.439)"/>
<use xlink:href="#stroke0_0_6" transform="translate(49.5236 37.0872) scale(0.0106741) rotate(8.34439)"/>
<use xlink:href="#stroke0_0_6" transform="translate(52.2622 41.9421) scale(0.00731881) rotate(-173.526)"/>
<use xlink:href="#stroke0_0_6" transform="translate(52.6337 40.7208) scale(0.00733552) rotate(95.0047)"/>
<use xlink:href="#stroke0_0_6" transform="translate(54.4838 44.2434) scale(0.012836) rotate(149.241)"/>
<use xlink:href="#stroke0_0_6" transform="translate(48.7222 46.2069) scale(0.0128673) rotate(-57.1735)"/>
<use xlink:href="#stroke0_0_6" transform="translate(53.7461 48.475) scale(0.00981574) rotate(159.288)"/>
<use xlink:href="#stroke0_0_6" transform="translate(52.7763 46.3741) scale(0.0133451) rotate(58.0594)"/>
<use xlink:href="#stroke0_0_6" transform="translate(51.6944 52.2657) scale(0.00622912) rotate(-106.911)"/>
<use xlink:href="#stroke0_0_6" transform="translate(50.9958 53.9532) scale(0.00999216) rotate(-90.18)"/>
<use xlink:href="#stroke0_0_6" transform="translate(52.0997 52.2116) scale(0.00795613) rotate(9.42329)"/>
<use xlink:href="#stroke0_0_6" transform="translate(55.2172 52.3096) scale(0.0129512) rotate(64.0675)"/>
<use xlink:href="#stroke0_0_6" transform="translate(53.4848 55.6994) scale(0.00890442) rotate(-21.8555)"/>
<use xlink:href="#stroke0_0_6" transform="translate(57.2756 59.693) scale(0.00989076) rotate(-150.81)"/>
<use xlink:href="#stroke0_0_6" transform="translate(57.4155 59.2777) scale(0.0058196) rotate(-115.936)"/>
<use xlink:href="#stroke0_0_6" transform="translate(58.6991 55.6042) scale(0.0129717) rotate(31.9255)"/>
<use xlink:href="#stroke0_0_6" transform="translate(59.9789 56.0083) scale(0.0125139) rotate(13.3957)"/>
<use xlink:href="#stroke0_0_6" transform="translate(61.0104 59.0415) scale(0.0103141) rotate(-54.9016)"/>
<use xlink:href="#stroke0_0_6" transform="translate(62.7746 60.0772) scale(0.0142532) rotate(-86.1055)"/>
<use xlink:href="#stroke0_0_6" transform="translate(65.1689 55.9652) scale(0.0110764) rotate(-13.0894)"/>
<use xlink:href="#stroke0_0_6" transform="translate(69.0168 54.9687) scale(0.00694452) rotate(58.7174)"/>
<use xlink:href="#stroke0_0_6" transform="translate(72.1693 53.9334) scale(0.0121169) rotate(95.4708)"/>
<use xlink:href="#stroke0_0_6" transform="translate(70.6715 53.5486) scale(0.00602868) rotate(21.6582)"/>
<use xlink:href="#stroke0_0_6" transform="translate(73.3242 53.3949) scale(0.00667823) rotate(110.722)"/>
<use xlink:href="#stroke0_0_6" transform="translate(74.1074 54.4153) scale(0.0069276) rotate(173.818)"/>
<use xlink:href="#stroke0_0_6" transform="translate(74.5168 53.1284) scale(0.00551362) rotate(164.844)"/>
<use xlink:href="#stroke0_0_6" transform="translate(72.2168 51.3575) scale(0.00842837) rotate(-38.5391)"/>
<use xlink:href="#stroke0_0_6" transform="translate(74.3212 49.5265) scale(0.0128993) rotate(29.97)"/>
<use xlink:href="#stroke0_0_6" transform="translate(74.5393 56.473) scale(0.0110688) rotate(-104.005)"/>
<use xlink:href="#stroke0_0_6" transform="translate(76.7031 53.4531) scale(0.00859853) rotate(33.7963)"/>
<use xlink:href="#stroke0_0_6" transform="translate(80.071 56.4861) scale(0.00856079) rotate(135.753)"/>
<use xlink:href="#stroke0_0_6" transform="translate(80.5392 58.7155) scale(0.00837197) rotate(-179.235)"/>
<use xlink:href="#stroke0_0_6" transform="translate(81.2786 59.6552) scale(0.00879542) rotate(-156.151)"/>
<use xlink:href="#stroke0_0_6" transform="translate(80.8001 60.9217) scale(0.0132498) rotate(-106.643)"/>
<use xlink:href="#stroke0_0_6" transform="translate(82.4349 58.1721) scale(0.00652203) rotate(-29.9104)"/>
<use xlink:href="#stroke0_0_6" transform="translate(83.3013 60.9879) scale(0.0141199) rotate(-91.127)"/>
<use xlink:href="#stroke0_0_6" transform="translate(85.8035 58.0881) scale(0.00659628) rotate(-34.9381)"/>
<use xlink:href="#stroke0_0_6" transform="translate(90.9435 59.0313) scale(0.00986037) rotate(149.238)"/>
<use xlink:href="#stroke0_0_6" transform="translate(91.3748 54.9524) scale(0.0123603) rotate(63.4995)"/>
<use xlink:href="#stroke0_0_6" transform="translate(93.6762 57.3676) scale(0.00750281) rotate(143.815)"/>
<use xlink:href="#stroke0_0_6" transform="translate(94.5476 56.9949) scale(0.00627595) rotate(141.919)"/>
<use xlink:href="#stroke0_0_6" transform="translate(95.8787 58.173) scale(0.0120463) rotate(-169.841)"/>
<use xlink:href="#stroke0_0_6" transform="translate(97.417 56.5648) scale(0.0110822) rotate(-175.847)"/>
<use xlink:href="#stroke0_0_6" transform="translate(98.573 53.2994) scale(0.00710089) rotate(121.405)"/>
<use xlink:href="#stroke0_0_6" transform="translate(95.9932 52.9412) scale(0.00771406) rotate(-51.4223)"/>
<use xlink:href="#stroke0_0_6" transform="translate(100.955 49.0723) scale(0.0133237) rotate(83.0386)"/>
<use xlink:href="#stroke0_0_6" transform="translate(98.5711 49.7901) scale(0.00698375) rotate(-29.7344)"/>
<use xlink:href="#stroke0_0_6" transform="translate(99.8944 50.5077) scale(0.00629482) rotate(-98.1487)"/>
<use xlink:href="#stroke0_0_6" transform="translate(103.968 45.8187) scale(0.0133909) rotate(91.1858)"/>
<use xlink:href="#stroke0_0_6" transform="translate(103.717 47.751) scale(0.00769474) rotate(-177.49)"/>
<use xlink:href="#stroke0_0_6" transform="translate(103.554 48.2127) scale(0.014742) rotate(-138.034)"/>
<use xlink:href="#stroke0_0_6" transform="translate(103.301 44.3356) scale(0.00593608) rotate(-103.795)"/>
<use xlink:href="#stroke0_0_6" transform="translate(103.634 44.1368) scale(0.0102921) rotate(-112.68)"/>
<use xlink:href="#stroke0_0_6" transform="translate(106.382 39.9744) scale(0.00597782) rotate(102.294)"/>
<use xlink:href="#stroke0_0_6" transform="translate(108.467 41.0147) scale(0.0145026) rotate(169.135)"/>
<use xlink:href="#stroke0_0_6" transform="translate(108.547 36.9921) scale(0.0092675) rotate(127.907)"/>
<use xlink:href="#stroke0_0_6" transform="translate(107.174 34.2615) scale(0.00740626) rotate(48.3536)"/>
<use xlink:href="#stroke0_0_6" transform="translate(106.775 33.6654) scale(0.00543885) rotate(28.5938)"/>
<use xlink:href="#stroke0_0_6" transform="translate(107.358 35.4149) scale(0.00592792) rotate(-123.697)"/>
<use xlink:href="#stroke0_0_6" transform="translate(109.677 31.8143) scale(0.00849854) rotate(100.677)"/>
<use xlink:href="#stroke0_0_6" transform="translate(110.745 33.0467) scale(0.0137914) rotate(172.609)"/>
<use xlink:href="#stroke0_0_6" transform="translate(109.176 30.7708) scale(0.0062245) rotate(-158.598)"/>
<use xlink:href="#stroke0_0_6" transform="translate(108.316 27.4459) scale(0.00560448) rotate(9.25062)"/>
<use xlink:href="#stroke0_0_6" transform="translate(110.889 28.8919) scale(0.0104875) rotate(178.971)"/>
<use xlink:href="#stroke0_0_6" transform="translate(109.549 24.0079) scale(0.00733464) rotate(45.8691)"/>
<use xlink:href="#stroke0_0_6" transform="translate(110.165 21.5653) scale(0.0113628) rotate(56.5253)"/>
<use xlink:href="#stroke0_0_6" transform="translate(110.84 24.748) scale(0.0107463) rotate(-154.014)"/>
<use xlink:href="#stroke0_0_6" transform="translate(108.478 21.129) scale(0.00605324) rotate(-53.4989)"/>
<use xlink:href="#stroke0_0_6" transform="translate(107.131 18.0896) scale(0.0143546) rotate(-25.21)"/>
<use xlink:href="#stroke0_0_6" transform="translate(111.13 16.1583) scale(0.00693872) rotate(79.448)"/>
<use xlink:href="#stroke0_0_6" transform="translate(112.323 14.8006) scale(0.0105497) rotate(104.391)"/>
<use xlink:href="#stroke0_0_6" transform="translate(111.138 13.6625) scale(0.0056948) rotate(84.4691)"/>
<use xlink:href="#stroke0_0_6" transform="translate(109.66 11.7386) scale(0.00803533) rotate(27.8227)"/>
<use xlink:href="#stroke0_0_6" transform="translate(106.95 10.8682) scale(0.0140815) rotate(-31.046)"/>
<use xlink:href="#stroke0_0_6" transform="translate(111.739 8.82217) scale(0.00915467) rotate(107.271)"/>
<use xlink:href="#stroke0_0_6" transform="translate(109.31 11.0282) scale(0.0133999) rotate(-129.37)"/>
<use xlink:href="#stroke0_0_6" transform="translate(108.365 3.33578) scale(0.0116123) rotate(35.4239)"/>
<use xlink:href="#stroke0_0_6" transform="translate(105.278 3.50516) scale(0.0114736) rotate(-26.034)"/>
<use xlink:href="#stroke0_0_6" transform="translate(108.233 2.16668) scale(0.00791352) rotate(99.3468)"/>
<use xlink:href="#stroke0_0_6" transform="translate(106.353 4.69511) scale(0.00924622) rotate(-162.858)"/>
<use xlink:href="#stroke0_0_6" transform="translate(104.662 4.42981) scale(0.0105567) rotate(-155.217)"/>
<use xlink:href="#stroke0_0_6" transform="translate(20.9341 21.1538) scale(0.00679364) rotate(120.421)"/>
<use xlink:href="#stroke0_0_6" transform="translate(20.3035 22.7784) scale(0.0072834) rotate(-129.91)"/>
<use xlink:href="#stroke0_0_6" transform="translate(20.5792 22.1847) scale(0.00702043) rotate(-94.107)"/>
<use xlink:href="#stroke0_0_6" transform="translate(20.8755 19.26) scale(0.0109076) rotate(-16.5142)"/>
<use xlink:href="#stroke0_0_6" transform="translate(24.8292 18.8523) scale(0.00701161) rotate(52.2362)"/>
<use xlink:href="#stroke0_0_6" transform="translate(24.3977 20.9471) scale(0.00565863) rotate(-62.6549)"/>
<use xlink:href="#stroke0_0_6" transform="translate(27.9395 20.9755) scale(0.00589834) rotate(134.625)"/>
<use xlink:href="#stroke0_0_6" transform="translate(28.1837 18.5086) scale(0.0118988) rotate(47.7051)"/>
<use xlink:href="#stroke0_0_6" transform="translate(28.105 23.1719) scale(0.00616199) rotate(-86.2165)"/>
<use xlink:href="#stroke0_0_6" transform="translate(28.9613 21.751) scale(0.00666712) rotate(-11.4648)"/>
<use xlink:href="#stroke0_0_6" transform="translate(28.7044 24.383) scale(0.00973274) rotate(-59.0882)"/>
<use xlink:href="#stroke0_0_6" transform="translate(31.8993 22.4141) scale(0.0138393) rotate(48.994)"/>
<use xlink:href="#stroke0_0_6" transform="translate(30.1256 29.7015) scale(0.0122779) rotate(-89.1524)"/>
<use xlink:href="#stroke0_0_6" transform="translate(29.2775 30.5034) scale(0.0126548) rotate(-59.4233)"/>
<use xlink:href="#stroke0_0_6" transform="translate(34.6314 30.7034) scale(0.0121477) rotate(110.456)"/>
<use xlink:href="#stroke0_0_6" transform="translate(29.7866 33.7373) scale(0.00862176) rotate(-50.6917)"/>
<use xlink:href="#stroke0_0_6" transform="translate(33.0651 35.4042) scale(0.00707878) rotate(153.705)"/>
<use xlink:href="#stroke0_0_6" transform="translate(31.5046 36.8658) scale(0.00589664) rotate(-168.128)"/>
<use xlink:href="#stroke0_0_6" transform="translate(27.3073 37.7096) scale(0.012189) rotate(-59.5525)"/>
<use xlink:href="#stroke0_0_6" transform="translate(30.1151 36.9767) scale(0.00725318) rotate(81.3612)"/>
<use xlink:href="#stroke0_0_6" transform="translate(29.5851 38.6723) scale(0.00603234) rotate(119.427)"/>
<use xlink:href="#stroke0_0_6" transform="translate(28.2292 38.1097) scale(0.00770435) rotate(78.6823)"/>
<use xlink:href="#stroke0_0_6" transform="translate(25.4421 41.8631) scale(0.00826966) rotate(-120.832)"/>
<use xlink:href="#stroke0_0_6" transform="translate(26.1112 40.6303) scale(0.0057068) rotate(148.081)"/>
<use xlink:href="#stroke0_0_6" transform="translate(21.8504 42.9126) scale(0.0132037) rotate(-108.85)"/>
<use xlink:href="#stroke0_0_6" transform="translate(20.201 41.7572) scale(0.0094801) rotate(-102.828)"/>
<use xlink:href="#stroke0_0_6" transform="translate(18.7753 39.1769) scale(0.00602109) rotate(-32.262)"/>
<use xlink:href="#stroke0_0_6" transform="translate(16.8561 35.8485) scale(0.013831) rotate(1.24491)"/>
<use xlink:href="#stroke0_0_6" transform="translate(17.8335 34.1913) scale(0.0107942) rotate(48.325)"/>
<use xlink:href="#stroke0_0_6" transform="translate(17.3207 34.0528) scale(0.00561411) rotate(44.4479)"/>
<use xlink:href="#stroke0_0_6" transform="translate(18.6202 33.0037) scale(0.00864808) rotate(97.2843)"/>
<use xlink:href="#stroke0_0_6" transform="translate(14.7195 32.9148) scale(0.00961033) rotate(-51.1649)"/>
<use xlink:href="#stroke0_0_6" transform="translate(13.3308 30.958) scale(0.0145477) rotate(-50.0523)"/>
<use xlink:href="#stroke0_0_6" transform="translate(18.9483 27.7158) scale(0.00969645) rotate(108.924)"/>
<use xlink:href="#stroke0_0_6" transform="translate(18.1787 26.1324) scale(0.00657182) rotate(79.6374)"/>
<use xlink:href="#stroke0_0_6" transform="translate(16.7239 28.5735) scale(0.0121903) rotate(-117.492)"/>
<use xlink:href="#stroke0_0_6" transform="translate(17.3406 21.6247) scale(0.0109025) rotate(24.7939)"/>
<use xlink:href="#stroke0_0_6" transform="translate(18.8381 24.377) scale(0.00737083) rotate(-135.311)"/>
<use xlink:href="#stroke0_0_6" transform="translate(18.3887 23.2151) scale(0.00811701) rotate(-103.807)"/>
</g>
<defs>
<g id="stroke0_0_6" data-figma-scatter-ref="stroke0_0_6_ref" data-figma-scatter="f0.51_w0.06_aj180_sj0.65_r0_s3938056577062207719_sw3">
<path d="M215.823 333.963C215.823 333.23 216.123 332.93 216.49 333.296C216.856 333.663 216.856 334.263 216.49 334.63C216.123 334.996 215.823 334.696 215.823 333.963ZM143.424 3.97701C148.056 3.32404 151.523 8.80284 148.726 12.3588C146.775 14.8388 146.175 17.9633 147.648 17.9633C148.553 17.9667 158.823 30.3033 158.823 31.3862C158.823 32.4623 154.479 36.4974 152.507 37.2544C150.609 37.9824 151.073 39.9631 153.14 39.9633C153.801 39.9633 154.92 40.8881 155.626 42.02C156.91 44.0739 156.912 44.0744 158.617 42.0766C159.555 40.9766 161.223 39.938 162.323 39.77C163.423 39.601 164.653 39.0132 165.057 38.4633C165.472 37.8983 165.798 38.2253 165.807 39.2133C165.825 41.3531 166.254 41.3818 169.215 39.4419C170.838 38.3789 171.405 37.2303 171.099 35.6313C170.05 30.1434 175.963 30.1199 185.501 35.5737C190.79 38.5976 191.028 38.5792 193.164 34.9633C196.187 29.8454 203.13 33.2701 201.316 38.9838C200.801 40.6068 201.133 41.2309 202.733 41.6499C203.883 41.9499 204.823 42.5946 204.823 43.0805C204.824 43.5654 205.723 43.9633 206.823 43.9633C209.228 43.9633 209.333 43.3299 207.269 41.2661C205.332 39.3301 205.758 35.0191 208.025 33.5991C210.469 32.0694 211.11 33.2632 210.001 37.2797C209.157 40.3355 209.276 40.8478 210.928 41.2797C211.97 41.5527 212.823 42.4936 212.823 43.3696C212.824 45.4861 216.745 45.4516 218.302 43.3227C219.936 41.0879 223.264 42.9574 223.298 46.1294C223.32 48.1552 223.883 48.504 227.573 48.77C231.476 49.053 231.823 48.8831 231.823 46.6811C231.823 45.0832 232.672 43.8975 234.37 43.1245C240.164 40.4845 243.457 43.0685 242.282 49.3315C241.655 52.6722 241.655 52.6725 249.407 53.3745C262.73 54.5825 271.108 62.5852 260.323 63.8012C258.673 63.9882 256.79 64.5797 256.14 65.1167C255.368 65.7556 253.636 65.7276 251.14 65.0346C246.476 63.7398 245.823 63.7172 245.823 64.8549C245.823 65.7449 249.37 66.9616 253.515 67.4936C257.329 67.9826 258.042 68.9656 257.379 72.8286C255.795 82.0527 255.841 81.9633 252.685 81.9633C250.953 81.9633 249.964 81.5443 250.323 80.9633C250.663 80.4133 250.517 79.9633 249.999 79.9633C249.48 79.9633 248.821 79.0632 248.533 77.9633C248.217 76.7553 247.169 75.9633 245.885 75.9633C244.716 75.9632 243.46 75.1762 243.092 74.2133C242.404 72.4103 242.246 72.1833 238.753 67.9633C236.684 65.4633 236.684 65.4633 237.262 68.1733C237.705 70.252 237.359 71.1408 235.772 71.9897C232.719 73.6237 233.414 78.5898 236.633 78.1401C237.903 77.9621 239.585 78.3504 240.37 79.0024C241.211 79.7003 242.9 79.9101 244.485 79.5122C246.95 78.8932 247.055 78.9823 245.748 80.5922C244.844 81.7052 244.78 82.0721 245.573 81.5962C246.78 80.8713 247.26 82.2792 247.055 85.9321C247.01 86.7401 248.281 89.181 249.881 91.3569C252.292 94.6349 252.689 95.9524 252.194 99.0434C251.695 102.167 251.943 102.958 253.722 103.911C255.46 104.841 255.656 105.407 254.789 107.026C254.207 108.114 254.046 109.515 254.431 110.14C255.79 112.339 247.804 110.139 243.089 107.016C234.391 101.254 232.358 104.203 234.165 119.963C234.386 121.888 234.142 123.998 233.622 124.653C231.331 127.54 233.14 131.457 236.823 131.585C238.748 131.652 240.773 131.816 241.323 131.95C241.873 132.084 243.093 132.116 244.034 132.022C246.328 131.792 249.862 133.758 249.563 135.098C249.134 137.018 257.14 136.437 263.279 134.102C266.554 132.856 270.042 132.048 271.029 132.307C272.126 132.594 272.823 132.23 272.823 131.37C272.823 130.597 271.923 129.963 270.823 129.963C268.355 129.963 268.291 128.842 270.596 125.996C272.37 123.806 272.37 123.805 274.251 125.884C277.35 129.307 282.41 126.734 280.041 122.94C279.048 121.351 279.46 120.899 283.362 119.295C285.811 118.288 287.817 117.126 287.819 116.713C287.821 116.301 288.262 115.963 288.798 115.963C290.086 115.963 288.981 121.818 287.134 124.78C286.042 126.531 285.967 127.431 286.825 128.466C288.108 130.011 286.599 133.834 284.133 135.288C283.329 135.762 282.984 136.896 283.321 137.957C283.727 139.236 283.296 139.996 281.916 140.434C280.723 140.812 280.144 141.636 280.471 142.488C281.07 144.051 279.303 146.204 276.573 147.238C275.611 147.602 274.823 148.857 274.823 150.027C274.823 152.253 271.493 157.622 268.86 159.642C267.494 160.689 267.518 160.896 269.075 161.499C270.259 161.958 271.465 161.413 272.792 159.821C274.896 157.295 275.458 157.908 273.83 160.952C272.986 162.526 273.289 162.906 275.83 163.464C279.699 164.314 279.894 168.296 276.323 173.558C272.999 178.456 273.141 179.594 277.811 185.463C279.999 188.213 283.258 192.592 285.055 195.195C287.985 199.439 291.823 201.575 291.823 198.963C291.823 198.413 292.858 197.963 294.123 197.963C295.388 197.963 296.869 197.517 297.413 196.973C298.033 196.353 299.563 196.316 301.501 196.872C303.893 197.558 304.97 197.388 306.229 196.128C311.032 191.326 313.154 199.168 308.775 205.533C305.051 210.945 307.295 210.388 312.57 204.592C314.356 202.629 316.421 201.256 317.16 201.54C317.898 201.822 319.08 201.359 319.785 200.509C321.719 198.179 324.72 198.643 326.009 201.472C327.592 204.947 325.832 207.908 318.196 214.612C312.035 220.021 312.035 220.021 314.929 222.915C319.416 227.402 318.437 230.291 311.993 231.58C309.623 232.053 308.701 231.81 308.231 230.585C307.343 228.271 305.535 228.576 302.783 231.505C300.746 233.674 300.577 234.339 301.632 236.028C303.496 239.014 301.66 241.738 298.126 241.228C293.529 240.565 288.418 246.501 289.907 250.775C290.518 252.528 291.537 253.977 292.171 253.994C292.805 254.011 292.532 254.484 291.565 255.048C290.598 255.611 289.399 255.819 288.9 255.511C288.402 255.203 287.764 255.415 287.483 255.982C287.203 256.549 287.108 256.439 287.273 255.738C287.438 255.037 288.155 254.601 288.867 254.769C289.918 255.018 289.921 254.787 288.886 253.54C288.066 252.551 286.49 252.15 284.467 252.416C282.738 252.642 279.973 252.894 278.323 252.974C276.673 253.055 275.886 253.348 276.573 253.625C277.261 253.904 277.823 254.712 277.823 255.424C277.823 256.136 278.498 257.278 279.323 257.963C284.43 262.201 279.156 267.527 267.467 269.94C261.662 271.138 261.616 271.176 262.217 274.181C262.55 275.849 262.823 278.291 262.823 279.609C262.823 281.174 263.663 282.389 265.244 283.109C266.671 283.759 267.448 284.778 267.136 285.59C265.821 289.017 267.765 292.135 270.801 291.468C274.766 290.597 278.421 292.537 276.707 294.602C276.023 295.427 274.625 295.883 273.602 295.615C272.138 295.233 271.87 295.538 272.348 297.046C272.893 298.763 272.429 298.963 267.889 298.963C262.743 298.963 261.095 297.073 265.249 295.935C268.036 295.172 268.4 292.927 265.844 292.258C264.392 291.879 264.055 291.437 264.845 290.949C266.469 289.946 265.098 283.964 263.244 283.963C262.462 283.963 261.823 283.571 261.823 283.091C261.823 282.611 259.972 281.923 257.709 281.561C255.433 281.197 252.864 280.005 251.959 278.892C250.396 276.971 250.314 277.128 250.111 282.423C249.912 287.635 250.039 287.963 252.254 287.963C257.861 287.963 255.961 295.527 250.118 296.465C248.031 296.8 244.838 297.728 243.022 298.527C240.536 299.621 239.219 299.71 237.687 298.89C235.32 297.624 234.327 298.227 235.168 300.42C235.494 301.269 236.844 301.963 238.169 301.963C242.073 301.963 243.244 304.249 241.284 308.04C239.619 311.258 239.618 311.258 228.221 310.647C216.823 310.036 216.823 310.036 216.823 313.065C216.823 321.686 206.244 322.014 203.987 313.463C202.962 309.577 196.547 308.889 196.016 312.607C195.599 315.535 190.787 316.541 190.083 313.848C189.539 311.771 188.717 311.487 187.273 312.878C186.751 313.382 185.198 313.944 183.823 314.128C182.113 314.357 181.221 315.181 181 316.737C180.739 318.581 180.17 318.937 178 318.615C176.528 318.397 175.418 317.764 175.533 317.21C175.649 316.655 174.861 315.403 173.783 314.427C171.902 312.724 171.821 312.729 171.781 314.558C171.757 315.606 170.365 317.588 168.686 318.963C167.007 320.338 164.438 322.475 162.978 323.712C158.062 327.876 154.556 326.427 153.301 319.713C152.916 317.652 152.42 315.964 152.199 315.963C151.978 315.963 148.55 316.863 144.58 317.963C130.056 321.988 115.58 315.43 128.81 310.818C130.467 310.24 131.823 309.373 131.823 308.89C131.823 308.407 130.668 308.452 129.257 308.988C127.134 309.795 126.098 309.512 123.257 307.345C120.118 304.951 118.274 301.888 120.978 303.558C121.694 304.001 121.861 303.833 121.417 303.115C120.368 301.418 116.504 303.691 117.229 305.579C118.04 307.692 114.948 308.516 113.522 306.566C111.691 304.062 106.546 306.574 107.286 309.61C108.627 315.112 101.84 317.769 99.8455 312.524C98.8953 310.026 94.4089 310.708 90.3231 313.97C88.4581 315.459 83.5201 315.529 83.0311 314.074C82.7723 313.306 83.018 312.966 83.5799 313.313C84.1398 313.659 84.5764 313.384 84.5526 312.703C84.3916 308.249 84.9971 307.097 88.0731 306.006C91.7409 304.706 90.1749 302.466 84.8231 301.359C83.4482 301.075 81.5171 300.405 80.5321 299.87C79.5471 299.334 78.3755 299.121 77.9295 299.397C77.4824 299.673 76.2634 299.261 75.2196 298.481C73.4269 297.14 73.453 297.096 75.7069 297.665C77.4798 298.113 77.9663 297.907 77.6033 296.865C77.3352 296.094 76.3745 295.595 75.4686 295.757C74.5637 295.918 73.8231 295.644 73.8231 295.147C73.8225 293.779 67.1263 286.964 65.7821 286.963C64.5191 286.963 65.3358 292.016 66.7508 292.954C68.0246 293.798 67.6327 300.104 66.3377 299.607C65.6809 299.355 65.2149 300.076 65.2537 301.283C65.3377 303.874 62.3307 304.729 61.4256 302.372C61.0686 301.443 61.4731 299.62 62.3231 298.322C63.7468 296.15 63.7284 295.96 62.0955 295.928C61.1204 295.908 59.1988 295.27 57.826 294.51C56.13 293.571 54.9418 293.449 54.1238 294.128C52.5208 295.458 48.5416 294.139 49.1746 292.487C49.7193 291.067 47.2348 286.963 45.8309 286.963C44.5728 286.963 35.8231 278.847 35.8231 277.681C35.8231 277.1 37.4871 276.973 39.9481 277.367C43.78 277.98 44.0342 277.878 43.5272 275.938C43.0782 274.221 43.2342 274.059 44.4022 275.028C46.6741 276.914 46.0406 274.471 43.7127 272.369C42.5527 271.321 40.7375 268.625 39.6795 266.377C37.9885 262.785 29.7573 256.441 24.5213 254.696C21.1893 253.585 27.5839 242.826 31.0379 243.73C32.8048 244.192 33.0357 243.965 32.4178 242.374C31.1828 239.197 31.2554 238.448 32.7684 238.778C35.0593 239.276 38.8227 236.801 38.8231 234.794C38.8231 233.715 39.5439 232.963 40.5779 232.963C43.0149 232.963 45.0996 226.438 43.1737 224.839C42.4307 224.223 41.8231 222.9 41.8231 221.9C41.823 220.899 41.3729 219.803 40.8231 219.463C40.2731 219.123 39.8231 217.945 39.8231 216.845C39.8231 215.745 39.4205 215.093 38.9295 215.397C38.4384 215.7 37.0855 214.04 35.9237 211.706C34.7617 209.372 33.2645 206.563 32.5965 205.463C31.9285 204.363 30.3573 201.785 29.1033 199.734C26.2513 195.07 26.2154 191.993 28.9774 189.028C30.8989 186.965 30.957 186.618 29.5194 185.813C28.6324 185.316 28.1605 184.245 28.4735 183.431C28.8615 182.419 27.9015 181.476 25.4315 180.444C23.4467 179.615 21.786 178.38 21.741 177.7C21.499 174.063 20.5431 170.143 19.2762 167.585C18.4912 166.003 18.1172 163.64 18.4442 162.335C18.8492 160.724 18.6035 159.943 17.6805 159.9C16.9341 159.865 17.347 159.425 18.5975 158.923C21.2044 157.876 20.8038 153.423 17.911 151.294C13.1591 147.798 12.87 147.403 13.4549 145.213C13.7859 143.975 14.834 142.963 15.785 142.963C16.735 142.963 18.3281 142.063 19.3231 140.963C20.3181 139.863 21.5542 138.963 22.0682 138.963C22.5823 138.963 23.847 137.951 24.8787 136.713C26.4927 134.779 26.7609 134.71 26.7899 136.223C26.8079 137.191 25.9229 138.753 24.8231 139.695C22.2852 141.868 22.305 142.594 24.9237 143.279C26.0795 143.582 26.7278 144.308 26.3651 144.896C26.0023 145.483 25.92 145.963 26.1815 145.963C26.4445 145.963 27.4328 146.261 28.3778 146.623C29.5896 147.087 29.9501 146.866 29.6024 145.873C29.0314 144.244 32.5938 138.703 33.7518 139.419C34.1787 139.683 35.3646 139.287 36.3875 138.54C38.4045 137.065 37.003 133.964 34.3192 133.963C32.9872 133.963 30.2179 125.51 30.7147 122.963C30.8767 122.138 30.9536 119.741 30.8856 117.637C30.7766 114.238 31.1058 113.683 33.8338 112.653C35.9678 111.847 36.8578 110.879 36.7528 109.478C36.4928 106.022 36.7888 104.824 37.7537 105.42C38.2657 105.737 38.9407 105.581 39.2547 105.073C39.5679 104.566 40.6568 104.368 41.6746 104.635C44.2356 105.304 47.2646 102.201 45.7879 100.421C44.9809 99.4493 44.9929 98.5137 45.8309 96.9487C46.4608 95.7707 46.7305 94.1671 46.4305 93.3852C46.0505 92.3923 46.6314 91.9633 48.3543 91.9633C49.712 91.9632 50.8228 91.5132 50.8231 90.9633C50.8231 90.4135 50.3871 89.9636 49.8543 89.9633C49.3224 89.9633 49.1449 89.2882 49.4608 88.4633C49.7917 87.6015 49.481 86.9636 48.7303 86.9633C47.7133 86.9633 47.6899 86.6961 48.6229 85.7631C49.2829 85.1031 49.8231 83.8148 49.8231 82.9008C49.8233 81.6241 51.1422 81.0827 55.5067 80.5698C58.6325 80.2028 61.7825 79.411 62.5067 78.81C64.2735 77.3441 64.1799 74.9637 62.3543 74.9633C61.4603 74.9633 61.1108 75.5493 61.4608 76.4633C61.8237 77.4082 61.4499 77.9633 60.45 77.9633C58.464 77.9633 58.8759 72.1768 60.9559 70.8598C64.4336 68.656 58.1944 70.1802 53.6815 72.6362C50.1078 74.581 48.4698 75.0103 47.6688 74.2094C46.9258 73.4665 45.7561 73.4182 44.0643 74.061C39.8403 75.667 37.8231 74.3507 37.8231 69.9907C37.8233 65.514 41.1635 63.0775 53.0731 58.8667C60.4397 56.2628 60.5863 56.0654 58.1824 51.9956C56.1924 48.6276 56.994 44.361 59.7821 43.476C62.4579 42.6272 68.8174 43.9249 68.8377 45.3237C68.8797 48.4517 70.4558 49.1528 74.6307 47.9028C79.0287 46.5848 80.5395 44.5322 78.7215 42.3422C77.8406 41.2803 78.116 40.538 79.9549 39.018C81.9907 37.3362 82.4786 37.2654 83.4324 38.5122C85.3604 41.0312 100.442 37.019 99.3865 34.269C98.521 32.0121 103.808 29.185 104.979 31.2778C106.381 33.7828 109.101 33.326 112.231 30.059C115.014 27.1544 115.014 27.1541 112.856 24.9965C109.082 21.2226 112.1 14.3884 117.416 14.6713C123.005 14.9683 123.68 15.1663 123.238 16.3803C123.021 16.9763 123.233 18.0729 123.708 18.8178C124.754 20.4597 129.376 17.8723 130.306 15.1245C130.615 14.2105 133.671 11.332 137.096 8.72701C140.516 6.12608 143.361 3.99002 143.424 3.97701ZM208.763 322.963C209.345 322.963 209.823 323.413 209.823 323.963C209.823 324.513 209.625 324.963 209.382 324.963C209.139 324.963 208.663 324.513 208.323 323.963C207.983 323.413 208.182 322.964 208.763 322.963ZM116.823 315.345C116.823 314.52 117.273 314.123 117.823 314.463C118.373 314.803 118.823 315.757 118.823 316.582C118.823 317.406 118.373 317.803 117.823 317.463C117.273 317.123 116.823 316.17 116.823 315.345ZM202.323 313.963C202.598 313.963 202.823 314.188 202.823 314.463C202.823 314.738 202.598 314.963 202.323 314.963C202.048 314.963 201.823 314.738 201.823 314.463C201.823 314.188 202.048 313.963 202.323 313.963ZM74.7635 305.963C75.3455 305.963 75.8231 306.413 75.8231 306.963C75.823 307.513 75.6246 307.963 75.3817 307.963C75.1386 307.963 74.6629 307.513 74.3231 306.963C73.9831 306.413 74.1818 305.964 74.7635 305.963ZM71.8231 304.963C72.373 304.963 72.8231 305.413 72.8231 305.963C72.823 306.513 72.3729 306.963 71.8231 306.963C71.2731 306.963 70.8232 306.513 70.8231 305.963C70.8231 305.413 71.2731 304.963 71.8231 304.963ZM131.823 306.07C131.823 304.426 129.038 304.086 127.17 305.5C125.465 306.792 125.573 306.902 128.573 306.931C130.36 306.949 131.823 306.561 131.823 306.07ZM86.8231 303.963C87.5559 303.963 87.856 304.263 87.4901 304.63C87.1231 304.996 86.5231 304.996 86.1561 304.63C85.7901 304.263 86.0901 303.963 86.8231 303.963ZM77.2401 304.042C78.294 303.999 78.8836 304.235 78.5516 304.567C78.2196 304.899 77.3566 304.935 76.6356 304.646C75.838 304.327 76.0752 304.09 77.2401 304.042ZM78.8231 300.963C79.373 300.963 79.8231 301.413 79.8231 301.963C79.823 302.513 79.3729 302.963 78.8231 302.963C78.2731 302.963 77.8232 302.513 77.8231 301.963C77.8231 301.413 78.2731 300.963 78.8231 300.963ZM70.3231 299.963C71.148 299.963 71.8231 300.624 71.8231 301.432C71.8231 302.326 71.2371 302.675 70.3231 302.325C69.4981 302.008 68.8231 301.347 68.8231 300.856C68.8233 300.365 69.4982 299.963 70.3231 299.963ZM69.8231 291.963C70.3727 291.963 70.8226 292.161 70.8231 292.404C70.8231 292.647 70.3731 293.123 69.8231 293.463C69.2731 293.803 68.8231 293.604 68.8231 293.022C68.8232 292.44 69.2731 291.963 69.8231 291.963ZM270.323 285.963C271.148 285.963 271.823 286.133 271.823 286.341C271.823 286.548 271.148 287.279 270.323 287.963C269.094 288.983 268.823 288.914 268.823 287.585C268.823 286.693 269.498 285.963 270.323 285.963ZM275.323 284.963C275.598 284.963 275.823 285.188 275.823 285.463C275.823 285.738 275.598 285.963 275.323 285.963C275.048 285.963 274.823 285.738 274.823 285.463C274.823 285.188 275.048 284.963 275.323 284.963ZM273.515 281.322C274.055 279.913 274.222 279.924 275.064 281.429C276.122 283.319 275.489 284.493 273.932 283.531C273.371 283.182 273.183 282.189 273.515 281.322ZM269.981 280.963C269.981 279.588 270.208 279.026 270.485 279.713C270.763 280.401 270.763 281.526 270.485 282.213C270.208 282.901 269.981 282.338 269.981 280.963ZM272.323 279.963C272.598 279.963 272.823 280.188 272.823 280.463C272.823 280.738 272.598 280.963 272.323 280.963C272.048 280.963 271.823 280.738 271.823 280.463C271.823 280.188 272.048 279.963 272.323 279.963ZM266.479 278.508C266.109 277.545 266.407 277.251 267.374 277.622C269.054 278.267 269.168 278.632 267.928 279.398C267.435 279.703 266.783 279.302 266.479 278.508ZM273.323 277.963C273.598 277.963 273.823 278.188 273.823 278.463C273.823 278.738 273.598 278.963 273.323 278.963C273.048 278.963 272.823 278.738 272.823 278.463C272.823 278.188 273.048 277.963 273.323 277.963ZM312.823 274.963C312.823 274.23 313.123 273.93 313.49 274.296C313.856 274.663 313.856 275.263 313.49 275.63C313.123 275.996 312.823 275.696 312.823 274.963ZM306.823 264.522C306.823 262.765 307.423 262.507 308.28 263.894C308.597 264.406 308.398 265.108 307.839 265.454C307.28 265.798 306.823 265.379 306.823 264.522ZM39.241 257.57C36.868 256.659 36.5506 256.812 37.2156 258.545C37.5496 259.415 37.8231 260.315 37.8231 260.545C37.8235 260.775 38.4984 260.963 39.3231 260.963C41.3139 260.963 41.251 258.341 39.241 257.57ZM294.721 251.963C296.379 251.963 302.87 258.076 302.261 259.064C300.769 261.477 295.519 258.26 294.343 254.213C293.964 252.911 294.123 251.964 294.721 251.963ZM274.323 255.963C274.048 255.963 273.823 256.188 273.823 256.463C273.823 256.738 274.048 256.963 274.323 256.963C274.598 256.963 274.823 256.738 274.823 256.463C274.823 256.188 274.598 255.963 274.323 255.963ZM268.323 252.963C268.048 252.963 267.823 253.188 267.823 253.463C267.823 253.738 268.048 253.963 268.323 253.963C268.598 253.963 268.823 253.738 268.823 253.463C268.823 253.188 268.598 252.963 268.323 252.963ZM266.646 249.296C266.257 247.287 264.26 246.448 263.356 247.911C262.476 249.334 263.598 250.963 265.455 250.963C266.331 250.963 266.833 250.26 266.646 249.296ZM269.323 249.963C269.048 249.963 268.823 250.188 268.823 250.463C268.823 250.738 269.048 250.963 269.323 250.963C269.598 250.963 269.823 250.738 269.823 250.463C269.823 250.188 269.598 249.963 269.323 249.963ZM24.3231 232.963C24.598 232.963 24.8231 233.188 24.8231 233.463C24.823 233.738 24.5979 233.963 24.3231 233.963C24.0481 233.963 23.8232 233.738 23.8231 233.463C23.8231 233.188 24.0481 232.963 24.3231 232.963ZM26.3231 232.963C26.598 232.963 26.8231 233.188 26.8231 233.463C26.823 233.738 26.5979 233.963 26.3231 233.963C26.0481 233.963 25.8232 233.738 25.8231 233.463C25.8231 233.188 26.0481 232.963 26.3231 232.963ZM30.3231 182.963C30.0481 182.963 29.8231 183.188 29.8231 183.463C29.8232 183.738 30.0481 183.963 30.3231 183.963C30.5979 183.963 30.823 183.738 30.8231 183.463C30.8231 183.188 30.598 182.963 30.3231 182.963ZM25.8231 182.963C26.5559 182.963 26.856 183.263 26.4901 183.63C26.1231 183.996 25.5231 183.996 25.1561 183.63C24.7901 183.263 25.0901 182.963 25.8231 182.963ZM24.5418 168.045C24.7068 165.852 23.3077 164.369 22.4237 165.799C22.1289 166.277 22.4496 167.439 23.1375 168.378C24.2905 169.956 24.3998 169.93 24.5418 168.045ZM26.3231 165.963C26.0481 165.963 25.8231 166.188 25.8231 166.463C25.8232 166.738 26.0481 166.963 26.3231 166.963C26.5979 166.963 26.823 166.738 26.8231 166.463C26.8231 166.188 26.598 165.963 26.3231 165.963ZM278.023 154.164C281.374 150.813 285.386 154.145 284.39 159.453C283.619 163.564 281.534 164.032 278.766 160.713C276.583 158.097 276.33 155.857 278.023 154.164ZM0.823065 156.963C1.55594 156.963 1.85603 157.263 1.49006 157.63C1.12312 157.996 0.523086 157.996 0.156073 157.63C-0.209927 157.263 0.0900652 156.963 0.823065 156.963ZM286.917 147.963C287.415 147.963 287.823 148.863 287.823 149.963C287.823 151.063 287.65 151.962 287.44 151.963C287.229 151.963 286.821 151.063 286.533 149.963C286.246 148.863 286.418 147.963 286.917 147.963ZM285.323 145.963C285.598 145.963 285.823 146.188 285.823 146.463C285.823 146.738 285.598 146.963 285.323 146.963C285.048 146.963 284.823 146.738 284.823 146.463C284.823 146.188 285.048 145.963 285.323 145.963ZM293.205 142.963C293.48 142.963 293.983 143.413 294.323 143.963C294.663 144.513 294.716 144.963 294.441 144.963C294.166 144.963 293.663 144.513 293.323 143.963C292.983 143.413 292.93 142.963 293.205 142.963ZM18.6795 133.08C18.8755 133.016 18.7986 133.583 18.5076 134.341C18.2168 135.099 18.5072 136.25 19.1512 136.898C20.0502 137.802 19.7528 137.866 17.8738 137.174C14.8158 136.047 14.1344 134.282 16.5184 133.664C17.5105 133.407 18.4825 133.144 18.6795 133.08ZM27.4901 131.63C28.6061 130.513 29.4901 130.881 29.4901 132.463C29.49 133.288 28.8899 133.963 28.1561 133.963C26.7371 133.963 26.3861 132.734 27.4901 131.63ZM293.763 131.963C294.345 131.963 294.823 132.413 294.823 132.963C294.823 133.513 294.625 133.963 294.382 133.963C294.139 133.963 293.663 133.513 293.323 132.963C292.983 132.413 293.182 131.964 293.763 131.963ZM296.323 132.963C296.598 132.963 296.823 133.188 296.823 133.463C296.823 133.738 296.598 133.963 296.323 133.963C296.048 133.963 295.823 133.738 295.823 133.463C295.823 133.188 296.048 132.963 296.323 132.963ZM20.8231 128.963C21.373 128.963 21.8231 129.638 21.8231 130.463C21.823 131.288 21.3729 131.963 20.8231 131.963C20.2731 131.963 19.8231 131.288 19.8231 130.463C19.8231 129.638 20.2731 128.963 20.8231 128.963ZM302.823 129.091C306.081 127.786 307.823 127.729 307.823 128.928C307.823 130.677 303.932 132.124 302.06 131.07C300.503 130.194 300.582 129.989 302.823 129.091ZM14.3885 125.861C17.5155 124.636 18.4666 124.918 16.4256 126.463C15.3817 127.253 14.062 127.611 13.492 127.258C12.8941 126.889 13.2737 126.298 14.3885 125.861ZM290.882 124.963C291.4 124.963 291.823 125.413 291.823 125.963C291.823 126.513 291.12 126.963 290.263 126.963C289.407 126.963 288.983 126.513 289.323 125.963C289.663 125.413 290.364 124.963 290.882 124.963ZM253.323 104.963C253.048 104.963 252.823 105.188 252.823 105.463C252.823 105.738 253.048 105.963 253.323 105.963C253.598 105.963 253.823 105.738 253.823 105.463C253.823 105.188 253.598 104.963 253.323 104.963ZM38.3231 101.963C38.598 101.963 38.8231 102.188 38.8231 102.463C38.823 102.738 38.5979 102.963 38.3231 102.963C38.0481 102.963 37.8232 102.738 37.8231 102.463C37.8231 102.188 38.0481 101.963 38.3231 101.963ZM43.3231 100.963C43.598 100.963 43.8231 101.188 43.8231 101.463C43.823 101.738 43.5979 101.963 43.3231 101.963C43.0481 101.963 42.8232 101.738 42.8231 101.463C42.8231 101.188 43.0481 100.963 43.3231 100.963ZM32.0731 95.9458C33.86 94.8529 35.9221 94.1854 36.6551 94.4614C37.3872 94.7374 38.7372 94.9995 39.6551 95.0424C40.6539 95.0895 40.8314 95.3207 40.0975 95.6176C39.4238 95.8904 38.6452 95.9673 38.367 95.7885C38.089 95.6095 37.152 96.4753 36.286 97.7133C35.258 99.1803 33.6844 99.9633 31.7654 99.9633C27.9139 99.9632 28.0332 98.4167 32.0731 95.9458ZM260.323 98.9633C260.598 98.9634 260.823 99.1884 260.823 99.4633C260.823 99.7382 260.598 99.9632 260.323 99.9633C260.048 99.9633 259.823 99.7383 259.823 99.4633C259.823 99.1883 260.048 98.9633 260.323 98.9633ZM42.3231 97.9633C42.598 97.9634 42.8231 98.1884 42.8231 98.4633C42.823 98.7382 42.5979 98.9632 42.3231 98.9633C42.0481 98.9633 41.8232 98.7383 41.8231 98.4633C41.8231 98.1883 42.0481 97.9633 42.3231 97.9633ZM54.6434 89.7915C54.2964 87.4396 52.372 86.2652 51.411 87.8198C50.504 89.2878 51.8519 91.9633 53.4998 91.9633C54.4317 91.9633 54.8462 91.1762 54.6434 89.7915ZM239.323 74.9633C239.598 74.9634 239.823 75.1884 239.823 75.4633C239.823 75.7382 239.598 75.9632 239.323 75.9633C239.048 75.9633 238.823 75.7383 238.823 75.4633C238.823 75.1883 239.048 74.9633 239.323 74.9633ZM273.823 72.9594C273.823 72.4464 274.498 72.2376 275.323 72.4946C276.148 72.7526 277.573 73.2036 278.49 73.4965C279.664 73.8715 279.843 74.3424 279.097 75.0883C277.917 76.2677 273.824 74.6152 273.823 72.9594ZM69.8074 71.2133C69.8294 69.4163 68.1488 69.6726 67.4178 71.5766C67.0247 72.6002 66.0719 73.0001 64.8113 72.6704C63.7187 72.3845 62.8236 72.5091 62.8231 72.9477C62.8231 73.3867 64.0183 74.0465 65.4783 74.4135C68.145 75.0822 69.7744 73.878 69.8074 71.2133ZM244.382 68.9633C244.139 68.9636 243.663 69.4135 243.323 69.9633C242.983 70.5132 243.182 70.9631 243.763 70.9633C244.345 70.9633 244.823 70.5133 244.823 69.9633C244.823 69.4133 244.625 68.9633 244.382 68.9633ZM241.323 67.9633C241.048 67.9633 240.823 68.1883 240.823 68.4633C240.823 68.7383 241.048 68.9633 241.323 68.9633C241.598 68.9632 241.823 68.7382 241.823 68.4633C241.823 68.1884 241.598 67.9634 241.323 67.9633ZM144.24 46.0424C143.075 46.0904 142.838 46.327 143.636 46.646C144.357 46.935 145.22 46.8988 145.552 46.5669C145.884 46.2349 145.294 45.9995 144.24 46.0424ZM181.823 43.9633C181.09 43.9633 180.79 44.2633 181.156 44.6303C181.523 44.9962 182.123 44.9963 182.49 44.6303C182.856 44.2634 182.556 43.9634 181.823 43.9633ZM147.345 34.3335C146.209 33.8976 145.532 34.3585 145.147 35.8335C144.84 37.0054 143.967 37.9633 143.206 37.9633C142.446 37.9633 141.823 38.4133 141.823 38.9633C141.823 40.4821 144.417 40.1582 145.823 38.4633C146.508 37.6384 148.111 36.9635 149.386 36.9633C150.661 36.9633 151.983 36.5133 152.323 35.9633C152.663 35.4133 152.051 34.9633 150.964 34.9633C149.876 34.9633 148.247 34.6804 147.345 34.3335ZM138.947 36.6958C137.959 35.7159 137.845 35.8314 138.387 37.2563C138.763 38.2423 139.322 38.7967 139.63 38.4887C139.938 38.1817 139.631 37.3747 138.947 36.6958ZM160.323 29.9633C160.598 29.9634 160.823 30.1884 160.823 30.4633C160.823 30.7382 160.598 30.9632 160.323 30.9633C160.048 30.9633 159.823 30.7382 159.823 30.4633C159.823 30.1883 160.048 29.9633 160.323 29.9633ZM205.823 28.9633C206.556 28.9634 206.856 29.2634 206.49 29.6303C206.123 29.9963 205.523 29.9961 205.156 29.6303C204.79 29.2633 205.09 28.9633 205.823 28.9633ZM210.823 24.9633C211.373 24.9634 211.823 25.161 211.823 25.4038C211.823 25.6468 211.373 26.1233 210.823 26.4633C210.273 26.8033 209.823 26.6039 209.823 26.0219C209.823 25.44 210.273 24.9633 210.823 24.9633ZM176.323 24.9633C176.598 24.9634 176.823 25.1884 176.823 25.4633C176.823 25.7382 176.598 25.9632 176.323 25.9633C176.048 25.9633 175.823 25.7382 175.823 25.4633C175.823 25.1883 176.048 24.9633 176.323 24.9633ZM172.823 18.9633C173.556 18.9634 173.856 19.2634 173.49 19.6303C173.123 19.9963 172.523 19.9961 172.156 19.6303C171.79 19.2633 172.09 18.9633 172.823 18.9633ZM173.823 15.9633C173.823 15.2303 174.123 14.9303 174.49 15.2963C174.856 15.6634 174.856 16.2634 174.49 16.6303C174.123 16.9963 173.823 16.6962 173.823 15.9633ZM208.823 13.9633C209.556 13.9634 209.856 14.2634 209.49 14.6303C209.123 14.9963 208.523 14.9962 208.156 14.6303C207.79 14.2633 208.09 13.9633 208.823 13.9633ZM177.323 12.9633C177.598 12.9634 177.823 13.1884 177.823 13.4633C177.823 13.7382 177.598 13.9632 177.323 13.9633C177.048 13.9633 176.823 13.7382 176.823 13.4633C176.823 13.1883 177.048 12.9633 177.323 12.9633ZM166.323 10.9633C166.598 10.9634 166.823 11.1884 166.823 11.4633C166.823 11.7382 166.598 11.9632 166.323 11.9633C166.048 11.9633 165.823 11.7382 165.823 11.4633C165.823 11.1883 166.048 10.9633 166.323 10.9633ZM175.823 10.9633C175.823 10.2303 176.123 9.93035 176.49 10.2963C176.856 10.6634 176.856 11.2634 176.49 11.6303C176.123 11.9963 175.823 11.6962 175.823 10.9633ZM171.323 9.96334C171.598 9.96343 171.823 10.1884 171.823 10.4633C171.823 10.7382 171.598 10.9632 171.323 10.9633C171.048 10.9633 170.823 10.7382 170.823 10.4633C170.823 10.1883 171.048 9.96334 171.323 9.96334ZM132.382 6.96334C132.625 6.96334 132.823 7.41334 132.823 7.96334C132.823 8.51325 132.345 8.96334 131.763 8.96334C131.182 8.96314 130.983 8.51318 131.323 7.96334C131.663 7.41353 132.139 6.96364 132.382 6.96334ZM122.823 7.96334C123.556 7.96339 123.856 8.26336 123.49 8.63033C123.123 8.99625 122.523 8.99614 122.156 8.63033C121.79 8.26333 122.09 7.96334 122.823 7.96334ZM167.204 2.311C170.133 -0.207938 172.823 -0.770742 172.823 1.13424C172.823 2.86018 169.742 5.96305 168.028 5.96334C167.212 5.96334 166.002 6.70389 165.34 7.60885C164.278 9.06077 164.156 8.98412 164.305 6.95846C164.398 5.69446 165.703 3.603 167.204 2.311Z" fill="var(--stroke-0, #C19CE4)"/>
</g>
<path id="stroke0_0_6_ref" d="M103.1 2.28068C101.454 2.28068 99.6607 2.77812 97.7499 3.77299C95.9713 4.70935 94.3986 5.92369 93.1051 7.38674C91.5324 9.14241 90.7387 11.1468 90.7387 13.3414C90.7387 14.7166 91.062 15.9164 91.6794 16.9112C92.0174 17.4379 92.4437 18.1256 92.9728 18.9449L93.1051 19.1204C93.8401 20.0861 94.3545 21.0956 94.6485 22.1343C94.9572 23.2755 95.1188 24.5191 95.1188 25.8359C95.1188 29.7715 94.1634 32.9756 92.2085 35.6383C90.4888 37.9646 88.4604 39.0911 85.844 39.1497C85.844 38.9887 85.8294 38.7985 85.8294 38.5645C85.8294 37.3062 85.8734 36.2089 85.9616 35.3165C86.0498 34.3947 86.1821 33.4584 86.3732 32.4343C86.579 31.1907 86.7554 29.7715 86.9317 28.1914C87.1081 26.5674 87.1963 24.446 87.1963 21.871C87.1963 20.1738 87.1228 18.6376 86.9905 17.2916C86.8582 15.9749 86.6378 14.7167 86.3585 13.5608C85.991 11.4687 85.3884 10.0349 84.4918 9.05462C83.7422 8.26457 82.4193 7.31358 80.288 7.31358C79.0974 7.31358 77.7304 7.57693 76.1283 8.14753C74.4821 8.71812 72.9828 9.62521 71.6746 10.8103C70.0431 12.3026 69.1906 14.3363 69.1906 16.6918C69.1906 17.7013 69.3964 18.6376 69.7785 19.4423C70.0284 19.9544 70.3077 20.4665 70.6898 21.037C71.3219 21.9441 71.8216 22.9098 72.1891 23.89C72.5125 24.7971 72.6888 26.0114 72.6888 27.4891C72.6888 30.4591 72.1303 32.8 71.0132 34.4533C69.8667 36.1504 68.5585 37.3648 67.1181 38.0378C65.7658 38.6815 64.7663 38.9595 64.0755 39.0619C64.0755 38.067 64.0902 37.0575 64.1196 36.0334C64.149 34.8483 64.1637 33.634 64.1637 32.405C64.1637 29.0546 64.0167 25.6896 63.708 22.4123C63.3993 19.0619 62.8849 15.9749 62.1647 13.2243C61.3856 10.2251 60.2392 7.75251 58.7546 5.8798C56.9467 3.59743 54.4773 2.3831 51.6111 2.3831C48.9507 2.3831 46.496 3.53891 44.5117 5.71886C43.13 7.22581 42.2628 9.25945 41.866 11.732C41.2927 10.6932 40.6607 9.69837 39.9404 8.80591C36.2805 4.22654 31.1066 1.91492 24.5951 1.91492C19.9798 1.91492 15.9377 2.92442 12.557 4.91417C9.36743 6.80152 7.04506 8.52792 5.5899 10.0788C4.78148 10.8542 4.01715 11.8783 3.26753 13.2243C2.37091 14.7752 1.94466 16.6918 1.94466 19.0912C1.94466 20.3933 2.12104 21.7247 2.4885 23.0561C2.95886 24.7971 3.84077 25.7481 4.73738 26.2748C4.44341 27.2258 4.16414 28.206 3.92896 29.1863C3.26753 31.9661 2.92946 34.8629 2.92946 37.8183C2.92946 44.3874 4.5463 49.5374 7.73589 53.0926C11.0137 56.7502 15.3791 58.5937 20.7294 58.5937C25.6975 58.5937 30.1071 57.0721 33.8405 54.0875C37.427 51.2199 40.2638 47.3281 42.2775 42.5001C44.2324 37.789 45.2319 32.4928 45.2319 26.7576C45.2319 24.6508 45.0849 22.6903 44.8057 20.8176C45.276 20.9932 45.7023 21.0663 46.0109 21.0956C46.7018 21.2126 46.9517 21.3443 46.9517 21.3443C47.0545 21.4174 47.3191 21.6808 47.6572 22.3392C48.0981 23.217 48.7743 24.9434 49.421 28.2792C49.9796 31.1468 50.4793 34.2631 50.8909 37.5549C51.3024 40.8322 51.567 43.8314 51.6993 46.4649C51.9345 50.8541 52.9193 53.8826 54.7125 55.77C56.5351 57.672 58.8869 58.6815 61.5179 58.6815C65.075 58.6815 68.485 57.2038 71.6893 54.2777C72.6888 53.3706 73.6442 52.3611 74.5555 51.2784C74.8054 51.9953 75.1141 52.6829 75.4522 53.3267C76.7309 55.77 79.4796 58.6668 85.3296 58.6668C89.5481 58.6668 93.355 57.1014 96.6328 53.9997C99.6313 51.1906 102.174 47.4891 104.217 43.0268C106.172 38.7254 107.701 34.0875 108.744 29.2009C109.788 24.3289 110.317 19.574 110.317 15.0678C110.317 12.2733 110.023 9.713 109.435 7.47452C108.568 4.12413 106.26 2.20752 103.1 2.20752V2.28068ZM19.3918 21.5345C19.9504 21.3004 20.553 21.0809 21.1704 20.9054C21.9935 20.6713 22.9489 20.5396 24.0219 20.5396C26.3002 20.5396 28.2551 21.2272 29.9748 22.6171C31.4888 23.8461 32.2678 26.1724 32.2678 29.5228C32.2678 32.8732 31.4153 35.5798 29.6808 37.5549C28.0052 39.4423 26.1238 40.3201 23.7426 40.3201C21.773 40.3201 20.2297 39.6471 18.848 38.1987C17.4663 36.7503 16.7608 34.3948 16.7608 31.2053C16.7608 29.157 17.0548 27.2697 17.6574 25.6164C18.1866 24.1241 18.7745 22.7635 19.4065 21.5345H19.3918Z"/>
</defs>
</svg>
